<svg xmlns="http://www.w3.org/2000/svg" width="24.643" height="30.789" viewBox="0 0 24.643 30.789">
  <path id="Path_261" data-name="Path 261" d="M73.437,26.614,71.674,6.762a.849.849,0,0,0-.844-.774H67.2a6.083,6.083,0,0,0-12.164,0H51.413a.844.844,0,0,0-.844.774L48.806,26.614c0,.025-.006.05-.006.076a4.387,4.387,0,0,0,4.621,4.1h15.4a4.387,4.387,0,0,0,4.621-4.1A.307.307,0,0,0,73.437,26.614ZM61.122,1.7A4.387,4.387,0,0,1,65.5,5.988H56.74A4.387,4.387,0,0,1,61.122,1.7Zm7.7,27.389h-15.4A2.712,2.712,0,0,1,50.5,26.728L52.187,7.694h2.846v2.581a.85.85,0,0,0,1.7,0V7.694H65.5v2.581a.85.85,0,1,0,1.7,0V7.694H70.05l1.694,19.034A2.717,2.717,0,0,1,68.822,29.089Z" transform="translate(-48.8)" fill="#fff"/>
</svg>
