<svg id="notification" xmlns="http://www.w3.org/2000/svg" width="21.405" height="25.687" viewBox="0 0 21.405 25.687">
  <g id="Group_653" data-name="Group 653" transform="translate(0)">
    <g id="Group_652" data-name="Group 652">
      <path id="Path_489" data-name="Path 489" d="M64,21.666,62.167,18.6a9.1,9.1,0,0,1-1.3-4.682V11.238a7.5,7.5,0,0,0-5.352-7.176V2.141a2.141,2.141,0,0,0-4.281,0V4.062a7.5,7.5,0,0,0-5.351,7.176v2.683a9.1,9.1,0,0,1-1.3,4.68l-1.838,3.063a.536.536,0,0,0,.458.811H63.545a.535.535,0,0,0,.459-.81Z" transform="translate(-42.675)" fill="#3c3c3c"/>
    </g>
  </g>
  <g id="Group_655" data-name="Group 655" transform="translate(7.332 23.547)">
    <g id="Group_654" data-name="Group 654">
      <path id="Path_490" data-name="Path 490" d="M188.815,469.333a3.724,3.724,0,0,0,6.741,0Z" transform="translate(-188.815 -469.333)" fill="#3c3c3c"/>
    </g>
  </g>
</svg>
