<svg id="Group_213" data-name="Group 213" xmlns="http://www.w3.org/2000/svg" width="23.824" height="21.177" viewBox="0 0 23.824 21.177">
  <path id="Icon_awesome-shopping-cart" data-name="Icon awesome-shopping-cart" d="M21.844,12.463,23.8,3.86a.993.993,0,0,0-.968-1.213H6.585L6.206.794A.993.993,0,0,0,5.233,0H.993A.993.993,0,0,0,0,.993v.662a.993.993,0,0,0,.993.993h2.89l2.906,14.2a2.316,2.316,0,1,0,2.773.354h8.671a2.316,2.316,0,1,0,2.631-.43l.228-1a.993.993,0,0,0-.968-1.213H9.022l-.271-1.324H20.876A.993.993,0,0,0,21.844,12.463Z" fill="#3c3c3c"/>
</svg>
