<svg id="logo" xmlns="http://www.w3.org/2000/svg" width="191.576" height="52.486" viewBox="0 0 191.576 52.486">
  <path id="Path_326" data-name="Path 326" d="M20.942,16.689a8.6,8.6,0,0,1,4.572,7.91A9.374,9.374,0,0,1,22.4,31.824a11.154,11.154,0,0,1-7.682,2.835H2.789A2.771,2.771,0,0,1,0,31.87V2.789A2.771,2.771,0,0,1,2.789,0H13.672a10.757,10.757,0,0,1,7.5,2.743,9.075,9.075,0,0,1,3.064,7A8.435,8.435,0,0,1,20.942,16.689ZM13.672,6.4H6.859v7.636h6.859a3.589,3.589,0,0,0,2.652-1.1A3.686,3.686,0,0,0,17.421,10.2a3.873,3.873,0,0,0-1.052-2.743A3.763,3.763,0,0,0,13.672,6.4Zm1.052,21.9a3.911,3.911,0,0,0,4.024-4.069,3.909,3.909,0,0,0-4.024-4.024H6.859v8.185h7.865Z" transform="translate(0 0)" fill="#603a17"/>
  <path id="Path_327" data-name="Path 327" d="M83.47,21.7h.777a2.771,2.771,0,0,1,2.789,2.789V43.648a2.771,2.771,0,0,1-2.789,2.789h-.823a2.771,2.771,0,0,1-2.789-2.789h0c-1.555,2.332-4.024,3.475-7.362,3.475a9,9,0,0,1-6.721-2.743A10.335,10.335,0,0,1,63.9,36.835V24.489A2.771,2.771,0,0,1,66.689,21.7h.777a2.771,2.771,0,0,1,2.789,2.789V36.1a5.174,5.174,0,0,0,1.326,3.8,4.98,4.98,0,0,0,3.566,1.326,5.236,5.236,0,0,0,3.978-1.555,6.31,6.31,0,0,0,1.509-4.618V24.489A2.81,2.81,0,0,1,83.47,21.7Z" transform="translate(-34.682 -11.778)" fill="#603a17"/>
  <path id="Path_328" data-name="Path 328" d="M139.617,20.2a9,9,0,0,1,6.721,2.743,10.335,10.335,0,0,1,2.652,7.545V42.879a2.771,2.771,0,0,1-2.789,2.789h-.777a2.771,2.771,0,0,1-2.789-2.789V31.22a5.174,5.174,0,0,0-1.326-3.8,4.98,4.98,0,0,0-3.567-1.326,5.236,5.236,0,0,0-3.978,1.555,6.31,6.31,0,0,0-1.509,4.618V42.834a2.771,2.771,0,0,1-2.789,2.789h-.777a2.771,2.771,0,0,1-2.789-2.789V23.675a2.771,2.771,0,0,1,2.789-2.789h.823a2.771,2.771,0,0,1,2.789,2.789h0C133.765,21.343,136.234,20.2,139.617,20.2Z" transform="translate(-68.333 -10.964)" fill="#603a17"/>
  <path id="Path_329" data-name="Path 329" d="M186.9,43.648V24.489a2.771,2.771,0,0,1,2.789-2.789h.777a2.771,2.771,0,0,1,2.789,2.789V43.648a2.771,2.771,0,0,1-2.789,2.789h-.777A2.743,2.743,0,0,1,186.9,43.648Z" transform="translate(-101.441 -11.778)" fill="#603a17"/>
  <path id="Path_330" data-name="Path 330" d="M285.308,20.832h.777a2.771,2.771,0,0,1,2.789,2.789V42.779a2.771,2.771,0,0,1-2.789,2.789h-.777a2.771,2.771,0,0,1-2.789-2.789v-.137a9.721,9.721,0,0,1-8.093,3.612,11.329,11.329,0,0,1-8.5-3.8,12.987,12.987,0,0,1-3.521-9.282,13.185,13.185,0,0,1,3.521-9.282,11.329,11.329,0,0,1,8.5-3.8,9.721,9.721,0,0,1,8.093,3.612v-.137A2.762,2.762,0,0,1,285.308,20.832ZM270.722,38.253a6.512,6.512,0,0,0,4.893,1.966,6.726,6.726,0,0,0,6.9-7,6.752,6.752,0,0,0-1.966-5.03,6.615,6.615,0,0,0-4.938-1.966,6.512,6.512,0,0,0-4.893,1.966,6.9,6.9,0,0,0-1.92,5.03A6.614,6.614,0,0,0,270.722,38.253Z" transform="translate(-142.419 -10.909)" fill="#603a17"/>
  <path id="Path_331" data-name="Path 331" d="M351.608,0h.777a2.771,2.771,0,0,1,2.789,2.789V31.87a2.771,2.771,0,0,1-2.789,2.789h-.777a2.771,2.771,0,0,1-2.789-2.789v-.137a9.574,9.574,0,0,1-8.047,3.612,11.354,11.354,0,0,1-8.55-3.8,12.987,12.987,0,0,1-3.521-9.282,13.185,13.185,0,0,1,3.521-9.282,11.354,11.354,0,0,1,8.55-3.8,9.632,9.632,0,0,1,8.047,3.612V2.789A2.771,2.771,0,0,1,351.608,0ZM337.022,27.343a6.615,6.615,0,0,0,4.938,1.966,6.443,6.443,0,0,0,4.893-1.966,6.9,6.9,0,0,0,1.92-5.03,6.9,6.9,0,0,0-1.92-5.03,6.512,6.512,0,0,0-4.893-1.966,6.726,6.726,0,0,0-6.9,7A7.008,7.008,0,0,0,337.022,27.343Z" transform="translate(-178.404 0)" fill="#603a17"/>
  <path id="Path_332" data-name="Path 332" d="M398,43.648V24.489a2.771,2.771,0,0,1,2.789-2.789h.777a2.771,2.771,0,0,1,2.789,2.789V43.648a2.771,2.771,0,0,1-2.789,2.789h-.777A2.743,2.743,0,0,1,398,43.648Z" transform="translate(-216.017 -11.778)" fill="#603a17"/>
  <path id="Path_333" data-name="Path 333" d="M201.471,21.7a3.142,3.142,0,0,0-3.018,2.195l-4.435,13.489a.357.357,0,0,1-.686,0l-5.3-13.672a3.128,3.128,0,0,0-2.972-2.012h0a3.193,3.193,0,0,0-2.926,4.435l1.235,2.881c2.1,4.984,4.115,10.014,6.4,14.906,1.738,3.8-2.195,6.9-5.03,8.733a21.782,21.782,0,0,1-5.441,2.515,6.264,6.264,0,0,1-2.743.274,13.451,13.451,0,0,1-2.972-.732c-1.6-.594-2.972-1.738-4.664-2.1a5.6,5.6,0,0,0-.869-.091c-.229,0-.64-.046-.823.091-.366.274.594.914.823,1.052.457.274.914.5,1.372.777a6.008,6.008,0,0,1,1.555,1.1c.229.229.64.5.32.777-.366.366-1.006.32-1.463.366a17.678,17.678,0,0,1-2.195.137,36.68,36.68,0,0,0-4.481.137,8.3,8.3,0,0,0-3.749.96.631.631,0,0,1-.183.137c-.366.274-.823.777-.594,1.28.457.914,1.783.549,2.561.457a27.453,27.453,0,0,1,4.755-.091c.457.046.96.046,1.417.091A34.828,34.828,0,0,0,182.815,58.1c.229-.091.549-.229.777,0a.356.356,0,0,1,.091.366,4.7,4.7,0,0,1-1.509,2.012,16.669,16.669,0,0,1-2.241,1.783,4.978,4.978,0,0,0-1.052.64c-.274.229-.64.732-.457,1.1a.731.731,0,0,0,.457.229,4.142,4.142,0,0,0,2.469-.457,20.335,20.335,0,0,0,2.515-1.509,8.08,8.08,0,0,0,2.515-3.521,6.386,6.386,0,0,1,2.195-2.926,17.386,17.386,0,0,0,4.481-3.887,36.261,36.261,0,0,0,3.2-5.213c1.646-3.338,5.99-14.54,6.767-16.689.457-1.326.96-2.652,1.417-3.932A3.211,3.211,0,0,0,201.471,21.7Z" transform="translate(-86.063 -11.778)" fill="#603a17"/>
  <path id="Path_334" data-name="Path 334" d="M409.629.1s-9.282-1.417-7.5,7.5C411.046,9.338,409.629.1,409.629.1Z" transform="translate(-218.135 -0.011)" fill="#73be44"/>
  <path id="Path_335" data-name="Path 335" d="M198.529.1s-9.282-1.417-7.5,7.5C199.946,9.338,198.529.1,198.529.1Z" transform="translate(-103.559 -0.011)" fill="#73be44"/>
</svg>
